# Blender v2.78 (sub 0) OBJ File: 'Anvil.blend'
# www.blender.org
mtllib Anvil.mtl
o Anvil
v 0.102633 0.163100 0.170689
v 0.240913 0.548165 0.099427
v 0.255205 0.535521 0.108900
v 0.161389 0.548165 0.099427
v 0.161389 0.535521 0.108900
v 0.261125 0.519003 0.108900
v 0.246437 0.519003 0.124663
v 0.430910 0.487506 0.041781
v 0.430910 0.466381 0.059341
v 0.366741 0.487506 0.082425
v 0.366741 0.466381 0.097677
v 0.509847 0.471241 0.016907
v -0.484167 0.470299 0.049366
v -0.312076 0.374521 0.122885
v -0.112569 0.163100 0.148874
v 0.261125 0.497879 0.128984
v 0.515833 0.480035 0.008273
v 0.161389 0.519003 0.128984
v 0.134771 0.600000 0.182364
v 0.161389 0.561718 0.218673
v -0.457548 0.600000 0.023150
v -0.484167 0.561718 0.049365
v -0.161389 0.600000 0.153667
v -0.161389 0.561718 0.187397
v -0.312076 0.561718 0.122885
v -0.312076 0.600000 0.089155
v -0.415000 0.462582 0.097677
v -0.415000 0.561718 0.097677
v -0.401691 0.600000 0.067704
v 0.000000 0.163100 0.159782
v 0.000000 0.561718 0.203035
v -0.013309 0.600000 0.168015
v 0.102633 0.218461 0.170689
v 0.161389 0.263050 0.218673
v -0.112569 0.218461 0.148874
v -0.176109 0.306223 0.182053
v 0.000000 0.246667 0.203035
v 0.000000 0.218461 0.159782
v 0.209251 0.005698 0.244813
v 0.000000 0.005698 0.250000
v -0.209251 0.005698 0.204262
v 0.198217 0.089089 0.236354
v 0.209251 0.057092 0.244813
v 0.000000 0.057092 0.250000
v 0.000000 0.089089 0.242610
v -0.198217 0.089089 0.197941
v -0.209251 0.057092 0.204262
v 0.366741 0.349306 0.097677
v 0.366741 0.334381 0.082425
v 0.506256 0.445260 0.008904
v 0.506256 0.462087 0.018632
v 0.261125 0.328357 0.128984
v 0.261125 0.313432 0.108900
v 0.161389 0.328357 0.128984
v 0.161389 0.313432 0.108900
v 0.430910 0.386715 0.059341
v 0.430910 0.371789 0.041781
v 0.161389 0.497879 0.134038
v 0.102633 0.163101 -0.170689
v 0.240913 0.548165 -0.099427
v 0.255205 0.535521 -0.108900
v 0.161389 0.548165 -0.099427
v 0.161389 0.535521 -0.108900
v 0.261125 0.519003 -0.108900
v 0.246437 0.519003 -0.124663
v 0.430910 0.487506 -0.041781
v 0.430910 0.466381 -0.059341
v 0.366741 0.487506 -0.082425
v 0.366741 0.466381 -0.097677
v 0.509847 0.471241 -0.016907
v -0.312076 0.374521 0.000000
v 0.102634 0.163100 -0.000000
v -0.161389 0.600000 0.000000
v -0.312076 0.600000 0.000000
v -0.112569 0.163100 0.000000
v 0.261125 0.313432 -0.000000
v 0.161389 0.313432 -0.000000
v 0.161389 0.561718 0.000000
v 0.261125 0.532556 0.000000
v 0.240913 0.561718 0.000000
v 0.430910 0.371789 -0.000000
v 0.430910 0.492252 -0.000000
v 0.366741 0.334381 -0.000000
v 0.366741 0.501059 -0.000000
v 0.515833 0.483587 -0.000000
v 0.506256 0.445260 -0.000000
v -0.484167 0.470299 -0.049365
v -0.312077 0.374521 -0.122885
v -0.112569 0.163101 -0.148874
v -0.484167 0.470299 0.000000
v 0.261125 0.497879 -0.128984
v 0.515833 0.480035 -0.008274
v 0.161389 0.519003 -0.128983
v 0.255205 0.554113 0.000000
v 0.161389 0.561718 0.000000
v 0.134771 0.600000 0.000000
v 0.134771 0.600000 -0.182364
v 0.161389 0.561718 -0.218673
v -0.484167 0.561718 0.000000
v -0.457548 0.600000 0.000000
v -0.457548 0.600000 -0.023149
v -0.484167 0.561718 -0.049365
v -0.161389 0.600000 -0.153667
v -0.161389 0.561718 -0.187397
v -0.312077 0.561718 -0.122884
v -0.312076 0.600000 -0.089154
v -0.415000 0.462582 0.000000
v -0.415000 0.462582 -0.097677
v -0.415000 0.561718 -0.097677
v -0.401691 0.600000 -0.067704
v -0.401691 0.600000 0.000000
v -0.000000 0.163101 -0.159782
v -0.000000 0.561718 -0.203035
v -0.013309 0.600000 -0.168015
v -0.013309 0.600000 0.000000
v 0.102633 0.218461 -0.170689
v 0.161389 0.263050 -0.218673
v -0.178691 0.301243 0.000000
v -0.112569 0.218461 0.000000
v 0.102634 0.218461 0.000000
v 0.161389 0.263050 -0.000000
v -0.112569 0.218461 -0.148874
v -0.176109 0.306223 -0.182053
v -0.000000 0.246667 -0.203035
v -0.000000 0.218461 -0.159782
v 0.217406 0.005698 -0.000000
v 0.209251 0.005698 -0.244813
v -0.000000 0.005698 -0.250000
v -0.214309 0.005698 0.000000
v -0.209251 0.005698 -0.204262
v 0.217406 0.057092 -0.000000
v 0.204455 0.089089 -0.000000
v 0.198217 0.089089 -0.236354
v 0.209251 0.057092 -0.244813
v -0.000000 0.057092 -0.250000
v -0.000000 0.089089 -0.242610
v -0.214309 0.057092 0.000000
v -0.201359 0.089089 0.000000
v -0.198217 0.089089 -0.197941
v -0.209251 0.057092 -0.204262
v 0.366741 0.349306 -0.097677
v 0.366741 0.334381 -0.082425
v 0.506256 0.445260 -0.008904
v 0.506256 0.462087 -0.018632
v 0.261125 0.328357 -0.128984
v 0.261125 0.313432 -0.108901
v 0.161389 0.328357 -0.128984
v 0.161389 0.313432 -0.108900
v 0.430910 0.386715 -0.059341
v 0.430910 0.371789 -0.041781
v 0.161389 0.497879 -0.134037
v -0.000000 -0.000000 0.000000
vt 0.1032 0.9707
vt 0.0627 0.9706
vt 0.0627 0.8391
vt 0.1032 0.8391
vt 0.0000 0.1767
vt 0.2310 0.1979
vt 0.2163 0.3757
vt 0.0278 0.3748
vt 0.1958 0.6572
vt 0.1912 0.7348
vt 0.1242 0.7286
vt 0.1231 0.6505
vt 0.4022 0.0762
vt 0.4097 0.1893
vt 0.3056 0.1928
vt 0.3195 0.0790
vt 0.4552 0.3491
vt 0.4676 0.1837
vt 0.5429 0.1895
vt 0.5851 0.3591
vt 0.0376 0.9154
vt 0.0000 0.9155
vt 0.0002 0.7348
vt 0.0378 0.7348
vt 0.4431 0.5117
vt 0.5851 0.5226
vt 0.1451 0.8391
vt 0.1451 0.9087
vt 0.1032 0.9088
vt 0.1032 0.8391
vt 0.4749 0.0853
vt 0.4795 0.0240
vt 0.4990 0.0255
vt 0.5321 0.0897
vt 0.0712 0.8387
vt 0.0712 0.7511
vt 0.1561 0.7515
vt 0.1561 0.8391
vt 0.9603 0.7019
vt 0.9311 0.7716
vt 0.8725 0.7717
vt 0.8742 0.7020
vt 0.0627 0.7348
vt 0.1558 0.7354
vt 0.2636 1.0000
vt 0.2844 0.8820
vt 0.3548 0.8822
vt 0.3565 1.0000
vt 0.4189 0.7170
vt 0.4287 0.7173
vt 0.4287 0.8207
vt 0.4189 0.8047
vt 0.9195 0.2710
vt 0.9195 0.3811
vt 0.8272 0.3810
vt 0.8272 0.2710
vt 0.8281 0.1544
vt 0.8298 0.0834
vt 0.8652 0.0835
vt 0.8980 0.1544
vt 0.8739 0.8536
vt 0.8671 0.8575
vt 0.3186 0.8111
vt 0.3542 0.8111
vt 0.3464 0.7170
vt 0.3536 0.7171
vt 0.8415 0.9671
vt 0.8238 0.9664
vt 0.8274 0.8727
vt 0.8415 0.8638
vt 0.9771 0.5863
vt 0.8523 0.5865
vt 0.8526 0.4767
vt 0.8366 0.5702
vt 0.8368 0.4766
vt 0.8332 0.0001
vt 0.8407 0.0001
vt 0.8359 0.5860
vt 0.8238 0.5795
vt 0.2706 0.8811
vt 0.2457 0.9991
vt 0.8562 0.7712
vt 0.8579 0.7016
vt 0.8602 0.8638
vt 0.8451 0.8652
vt 0.8578 0.8638
vt 0.8578 0.9607
vt 0.8415 0.9624
vt 0.8431 0.3811
vt 0.8431 0.4094
vt 0.8361 0.4066
vt 0.8355 0.3811
vt 0.8272 0.3939
vt 0.8287 0.4005
vt 0.0267 0.0000
vt 0.2457 0.0202
vt 0.2457 0.3794
vt 0.2340 0.5471
vt 0.2046 0.5434
vt 0.1232 0.9414
vt 0.1036 0.9415
vt 0.6151 0.5415
vt 0.6151 0.3633
vt 0.5600 0.0791
vt 0.5248 0.0000
vt 0.6151 0.9481
vt 0.6148 0.9800
vt 0.4599 0.9799
vt 0.4294 0.9479
vt 0.0673 0.5307
vt 0.2264 0.6462
vt 0.3995 0.0000
vt 0.3577 0.0014
vt 0.6151 0.7199
vt 0.4294 0.7197
vt 0.6151 0.7197
vt 0.5851 0.6861
vt 0.4309 0.6742
vt 0.4176 0.3360
vt 0.2632 0.3440
vt 0.2921 0.5372
vt 0.2542 0.5385
vt 0.2975 0.4127
vt 0.4236 0.4085
vt 0.4309 0.6458
vt 0.4309 0.7109
vt 0.2457 0.7170
vt 0.2864 0.6507
vt 0.1968 0.7349
vt 0.2375 0.7348
vt 0.2375 0.8857
vt 0.1968 0.8857
vt 0.9750 0.2307
vt 0.9372 0.2306
vt 0.9383 0.0000
vt 0.9761 0.0001
vt 0.1561 0.8593
vt 0.1968 0.8594
vt 0.1968 0.9729
vt 0.1561 0.9728
vt 0.1561 0.7348
vt 0.1968 0.7349
vt 0.8238 0.8290
vt 0.8208 0.9232
vt 0.6529 0.9203
vt 0.6975 0.8295
vt 0.6790 0.5926
vt 0.6204 0.4839
vt 0.8208 0.4763
vt 0.8238 0.5921
vt 0.3944 0.9336
vt 0.3566 0.9335
vt 0.3565 0.7170
vt 0.3942 0.7171
vt 0.9761 0.4628
vt 0.9383 0.4627
vt 0.6883 0.7056
vt 0.6151 0.7022
vt 1.0000 0.0126
vt 0.9989 0.2310
vt 0.4189 0.7173
vt 0.4189 0.9263
vt 0.0627 0.7402
vt 0.0627 0.9152
vt 1.0000 0.4509
vt 0.9372 0.3810
vt 0.9372 0.2710
vt 0.9116 0.1544
vt 0.8808 0.0834
vt 0.8497 0.0000
vt 0.9771 0.4763
vt 0.6151 0.2361
vt 0.8272 0.2364
vt 0.8267 0.4763
vt 0.6192 0.4670
vt 0.8272 0.0000
vt 0.6541 0.0053
vt 0.1032 0.8391
vt 0.0627 0.8391
vt 0.0000 0.1767
vt 0.0278 0.3748
vt 0.2163 0.3757
vt 0.2310 0.1979
vt 0.1958 0.6572
vt 0.1231 0.6505
vt 0.1242 0.7286
vt 0.1912 0.7348
vt 0.3195 0.0790
vt 0.3056 0.1928
vt 0.5851 0.3591
vt 0.5429 0.1895
vt 0.0378 0.7348
vt 0.0002 0.7348
vt 0.5851 0.5226
vt 0.1451 0.8391
vt 0.1451 0.9087
vt 0.5321 0.0897
vt 0.4990 0.0255
vt 0.0712 0.8387
vt 0.0712 0.7511
vt 0.9603 0.7019
vt 0.8742 0.7020
vt 0.8725 0.7717
vt 0.9311 0.7716
vt 0.0627 0.7348
vt 0.2636 1.0000
vt 0.2844 0.8820
vt 0.4189 0.7170
vt 0.4189 0.8047
vt 0.4287 0.8207
vt 0.4287 0.7173
vt 0.9195 0.2710
vt 0.9195 0.3811
vt 0.8980 0.1544
vt 0.8652 0.0835
vt 0.8739 0.8536
vt 0.8671 0.8575
vt 0.3186 0.8111
vt 0.3464 0.7170
vt 0.8415 0.9671
vt 0.8415 0.8638
vt 0.8274 0.8727
vt 0.8238 0.9664
vt 0.9771 0.5863
vt 0.8523 0.5865
vt 0.8526 0.4767
vt 0.8368 0.4766
vt 0.8366 0.5702
vt 0.8407 0.0001
vt 0.8359 0.5860
vt 0.8238 0.5795
vt 0.2706 0.8811
vt 0.2457 0.9991
vt 0.8579 0.7016
vt 0.8562 0.7712
vt 0.8602 0.8638
vt 0.8451 0.8652
vt 0.8578 0.8638
vt 0.8355 0.3811
vt 0.8361 0.4066
vt 0.8272 0.3939
vt 0.8287 0.4005
vt 0.0267 0.0000
vt 0.2457 0.0202
vt 0.2046 0.5434
vt 0.2340 0.5471
vt 0.2457 0.3794
vt 0.1232 0.9414
vt 0.6151 0.5415
vt 0.6151 0.3633
vt 0.5600 0.0791
vt 0.5248 0.0000
vt 0.4294 0.9479
vt 0.4599 0.9799
vt 0.0673 0.5307
vt 0.2264 0.6462
vt 0.3577 0.0014
vt 0.4294 0.7197
vt 0.6151 0.7197
vt 0.5851 0.6861
vt 0.2632 0.3440
vt 0.2921 0.5372
vt 0.2975 0.4127
vt 0.2542 0.5385
vt 0.2864 0.6507
vt 0.2457 0.7170
vt 0.1968 0.7349
vt 0.2375 0.7348
vt 0.9750 0.2307
vt 0.9761 0.0001
vt 0.9383 0.0000
vt 0.9372 0.2306
vt 0.1561 0.8593
vt 0.1561 0.9728
vt 0.1968 0.9729
vt 0.1968 0.8594
vt 0.1561 0.7348
vt 0.1968 0.7349
vt 0.6975 0.8295
vt 0.6529 0.9203
vt 0.6790 0.5926
vt 0.6204 0.4839
vt 0.3944 0.9336
vt 0.3566 0.9335
vt 0.9761 0.4628
vt 0.9383 0.4627
vt 0.6883 0.7056
vt 0.6151 0.7022
vt 0.9989 0.2310
vt 1.0000 0.0126
vt 0.4189 0.9263
vt 0.0627 0.7402
vt 1.0000 0.4509
vt 0.9372 0.3810
vt 0.9372 0.2710
vt 0.9116 0.1544
vt 0.8808 0.0834
vt 0.8497 0.0000
vt 0.9771 0.4763
vt 0.6151 0.2361
vt 0.6192 0.4670
vt 0.6541 0.0053
vn -1.0000 0.0000 0.0000
vn -0.7404 0.0000 0.6721
vn -0.1022 -0.0030 0.9948
vn -0.1027 -0.0032 0.9947
vn -0.2496 -0.0024 0.9683
vn -0.2248 -0.0031 0.9744
vn -0.4123 0.0000 0.9111
vn -0.8867 0.0000 0.4623
vn -0.8798 0.0000 0.4753
vn -0.3763 0.0000 0.9265
vn -0.3981 -0.9174 -0.0000
vn -0.5627 -0.8267 -0.0000
vn -0.5473 -0.8369 0.0108
vn -0.4782 -0.8782 0.0000
vn 0.0000 1.0000 -0.0000
vn -0.7711 -0.0000 0.6367
vn 0.0000 0.9908 0.1351
vn 0.4664 -0.3736 0.8019
vn 0.6311 -0.2899 0.7195
vn 0.4703 0.2899 0.8335
vn 0.4165 0.2718 0.8675
vn 0.5447 0.8288 0.1279
vn 0.5493 0.8357 -0.0000
vn 0.7173 0.6897 0.0987
vn 0.2317 0.9629 0.1385
vn 0.2110 0.9775 -0.0000
vn 0.7276 0.6860 -0.0000
vn 0.0000 0.5996 0.8003
vn 0.0082 0.6692 0.7431
vn 0.2423 0.6336 0.7347
vn 0.0896 -0.9960 0.0000
vn -0.0000 -1.0000 0.0000
vn 0.0977 -0.9952 -0.0000
vn 0.3540 -0.9353 -0.0000
vn 0.6054 -0.7959 -0.0000
vn 0.5816 -0.8135 0.0000
vn 0.3133 -0.9496 0.0000
vn 0.7169 -0.1903 0.6707
vn 0.6915 0.1379 0.7091
vn 0.1175 0.9815 0.1511
vn 0.1205 0.9927 0.0000
vn 0.1250 0.9788 0.1623
vn 0.1267 0.9919 -0.0000
vn 0.0346 0.5004 0.8651
vn 0.2616 0.4985 0.8265
vn 0.1659 -0.4379 0.8836
vn 0.2705 0.2570 0.9278
vn 0.0376 0.1093 0.9933
vn 0.6981 -0.7160 -0.0000
vn 0.5536 0.5041 0.6630
vn 0.4071 0.5726 0.7116
vn 0.3871 0.5665 0.7275
vn 0.9553 -0.0442 0.2924
vn 0.9540 0.2967 0.0438
vn 0.9549 0.2970 -0.0000
vn 0.9672 -0.2539 -0.0000
vn 0.8759 -0.3695 0.3103
vn -0.0964 0.0000 0.9953
vn -0.1774 0.6506 0.7384
vn -0.2020 0.6475 0.7348
vn -0.2344 0.6410 0.7308
vn -0.2514 0.6386 0.7273
vn -0.6444 0.6705 0.3678
vn -0.6991 0.6569 0.2824
vn -0.8210 0.5709 0.0000
vn -0.0725 0.6594 0.7483
vn -0.3145 0.6658 0.6766
vn -0.3167 0.6660 0.6754
vn 0.8210 0.5709 -0.0000
vn 0.4775 0.7563 0.4473
vn 0.4242 0.7608 0.4912
vn -0.3179 0.0010 0.9481
vn -0.3487 0.0014 0.9372
vn -0.1109 -0.9938 -0.0000
vn 1.0000 -0.0000 -0.0000
vn -0.4684 -0.8835 -0.0000
vn -0.4683 -0.8834 0.0184
vn -0.1195 -0.6991 0.7050
vn -0.1125 -0.7049 0.7004
vn -0.6511 -0.6858 0.3253
vn -0.5485 -0.6938 0.4667
vn -0.7946 -0.6071 0.0000
vn 0.6045 -0.7966 -0.0000
vn 0.3869 -0.8756 0.2890
vn 0.3109 -0.8761 0.3685
vn 0.6687 0.0000 0.7435
vn -0.0951 0.0000 0.9955
vn 0.7041 0.0000 0.7101
vn -0.1011 0.0000 0.9949
vn -0.6461 0.7633 0.0000
vn -0.4602 0.8156 0.3507
vn -0.4082 0.8099 0.4213
vn 0.3056 0.8466 0.4358
vn 0.3793 0.8567 0.3495
vn 0.5980 0.8015 -0.0000
vn -0.0713 0.7031 0.7075
vn -0.0657 0.7034 0.7078
vn 0.6560 0.3988 0.6408
vn 0.6246 0.3951 0.6736
vn -0.0938 0.2437 0.9653
vn -0.0906 0.2438 0.9656
vn 0.9352 0.3542 -0.0000
vn -0.7275 0.3697 0.5780
vn -0.6987 0.3652 0.6152
vn -0.9358 0.3526 0.0000
vn 0.0141 -0.4558 0.8899
vn -0.0000 -0.8026 0.5965
vn 0.1618 -0.7733 0.6130
vn 0.4916 -0.6557 0.5730
vn 0.6787 -0.5147 0.5239
vn 0.0003 -0.9999 0.0122
vn -0.0007 -1.0000 -0.0000
vn 0.0135 -0.9999 -0.0000
vn 0.0135 -0.9998 0.0117
vn -0.0148 -0.9999 -0.0000
vn -0.0148 -0.9998 0.0127
vn -0.7404 0.0000 -0.6721
vn -0.1022 -0.0030 -0.9948
vn -0.2248 -0.0031 -0.9744
vn -0.2496 -0.0024 -0.9683
vn -0.1027 -0.0032 -0.9947
vn -0.4123 0.0000 -0.9111
vn -0.3763 0.0000 -0.9265
vn -0.8798 0.0000 -0.4753
vn -0.8867 0.0000 -0.4623
vn -0.5473 -0.8369 -0.0108
vn -0.7711 0.0000 -0.6367
vn 0.0000 0.9908 -0.1351
vn 0.4664 -0.3736 -0.8019
vn 0.4165 0.2718 -0.8675
vn 0.4703 0.2899 -0.8335
vn 0.6311 -0.2899 -0.7195
vn 0.5447 0.8288 -0.1279
vn 0.7173 0.6897 -0.0987
vn 0.2317 0.9629 -0.1385
vn -0.0000 0.5996 -0.8003
vn 0.2423 0.6336 -0.7347
vn 0.0082 0.6692 -0.7431
vn 0.7169 -0.1903 -0.6707
vn 0.6915 0.1379 -0.7091
vn 0.1175 0.9815 -0.1511
vn 0.1250 0.9788 -0.1623
vn 0.2616 0.4985 -0.8265
vn 0.0346 0.5004 -0.8651
vn 0.1659 -0.4379 -0.8836
vn 0.2705 0.2570 -0.9278
vn 0.0376 0.1093 -0.9933
vn 0.5536 0.5041 -0.6630
vn 0.4071 0.5726 -0.7116
vn 0.3871 0.5665 -0.7275
vn 0.9553 -0.0442 -0.2924
vn 0.9540 0.2967 -0.0438
vn 0.8759 -0.3695 -0.3103
vn -0.0964 0.0000 -0.9953
vn -0.1774 0.6506 -0.7384
vn -0.2514 0.6386 -0.7273
vn -0.2344 0.6410 -0.7308
vn -0.2020 0.6475 -0.7348
vn -0.6444 0.6705 -0.3678
vn -0.6991 0.6569 -0.2824
vn -0.0725 0.6594 -0.7483
vn -0.3145 0.6658 -0.6766
vn -0.3167 0.6660 -0.6754
vn 0.4242 0.7608 -0.4912
vn 0.4775 0.7563 -0.4473
vn -0.3487 0.0014 -0.9372
vn -0.3179 0.0010 -0.9481
vn -0.4683 -0.8834 -0.0184
vn -0.1195 -0.6991 -0.7050
vn -0.5485 -0.6938 -0.4667
vn -0.6511 -0.6858 -0.3253
vn -0.1125 -0.7049 -0.7004
vn 0.3109 -0.8761 -0.3685
vn 0.3869 -0.8756 -0.2890
vn 0.6687 0.0000 -0.7435
vn -0.0951 0.0000 -0.9955
vn 0.7041 0.0000 -0.7101
vn -0.1011 0.0000 -0.9949
vn -0.4082 0.8099 -0.4213
vn -0.4602 0.8156 -0.3507
vn 0.3056 0.8466 -0.4358
vn 0.3793 0.8567 -0.3495
vn -0.0713 0.7031 -0.7075
vn -0.0657 0.7034 -0.7078
vn 0.6560 0.3988 -0.6408
vn -0.0906 0.2438 -0.9656
vn -0.0938 0.2437 -0.9653
vn 0.6246 0.3951 -0.6736
vn -0.7275 0.3697 -0.5780
vn -0.6987 0.3652 -0.6152
vn 0.0141 -0.4558 -0.8899
vn 0.1618 -0.7733 -0.6130
vn -0.0000 -0.8026 -0.5965
vn 0.4916 -0.6557 -0.5730
vn 0.6787 -0.5147 -0.5239
vn 0.0003 -0.9999 -0.0122
vn 0.0135 -0.9998 -0.0117
vn -0.0148 -0.9998 -0.0127
usemtl Anvi_lMaterial
s 1
f 119/1/1 75/2/1 15/3/2 35/4/2
f 37/5/3 31/6/4 24/7/5 36/8/6
f 28/9/7 22/10/8 13/11/9 27/12/10
f 107/13/11 71/14/12 14/15/13 27/16/14
f 73/17/15 74/18/15 26/19/15 23/20/15
f 137/21/1 129/22/1 41/23/16 47/24/16
f 115/25/15 73/17/15 23/20/15 32/26/15
f 13/27/9 22/28/8 99/29/1 90/30/1
f 111/31/15 100/32/15 21/33/15 29/34/15
f 4/35/17 2/36/17 80/37/15 78/38/15
f 48/39/18 56/40/19 9/41/20 11/42/21
f 2/36/22 3/43/22 94/44/23 80/37/23
f 6/45/24 10/46/25 84/47/26 79/48/27
f 4/49/28 5/50/29 3/51/30 2/52/28
f 53/53/31 55/54/32 77/55/32 76/56/33
f 83/57/34 81/58/35 57/59/36 49/60/37
f 51/61/38 12/62/39 9/41/20 56/40/19
f 10/46/25 8/63/40 82/64/41 84/47/26
f 8/63/40 17/65/42 85/66/43 82/64/41
f 5/67/29 18/68/44 7/69/45 3/70/30
f 52/71/46 48/39/18 11/42/21 16/72/47
f 58/73/48 16/72/47 7/74/45 18/75/44
f 81/58/35 86/76/49 50/77/49 57/59/36
f 6/78/50 3/79/30 7/74/45 16/72/47
f 11/80/21 10/46/51 6/45/50 16/81/47
f 9/41/20 8/82/52 10/83/51 11/42/21
f 8/82/52 9/41/20 12/62/39 17/84/53
f 3/85/54 6/86/24 79/87/27 94/88/55
f 86/89/56 85/90/56 17/91/53 50/92/57
f 51/93/38 50/92/57 17/91/53 12/94/39
f 34/95/58 20/96/58 31/6/4 37/5/3
f 24/7/59 23/97/60 26/98/61 25/99/62
f 22/28/63 21/100/64 100/101/65 99/29/65
f 31/102/66 32/26/66 23/20/60 24/103/59
f 28/104/67 29/34/68 21/33/64 22/105/63
f 95/106/69 96/107/69 19/108/70 20/109/71
f 24/7/5 25/99/72 14/110/73 36/8/6
f 25/99/62 26/98/61 29/111/68 28/9/67
f 74/18/15 111/31/15 29/34/15 26/19/15
f 90/112/74 107/13/11 27/16/14 13/113/74
f 25/99/72 28/9/7 27/12/10 14/110/73
f 121/114/75 95/106/75 20/109/75 34/115/75
f 20/116/71 19/117/70 32/26/66 31/102/66
f 96/118/15 115/25/15 32/26/15 19/117/15
f 71/14/12 118/119/76 36/120/77 14/15/13
f 38/121/78 37/122/79 36/120/80 35/123/81
f 35/123/81 36/120/80 118/119/82 119/124/82
f 120/125/83 121/126/83 34/127/84 33/128/85
f 33/128/85 34/127/84 37/122/79 38/121/78
f 33/129/86 1/130/86 72/131/75 120/132/75
f 44/133/87 40/134/87 39/135/88 43/136/88
f 38/137/89 30/138/89 1/139/86 33/140/86
f 35/141/2 15/142/2 30/138/89 38/137/89
f 75/143/90 138/144/90 46/145/91 15/146/92
f 1/147/93 42/148/94 132/149/95 72/150/95
f 43/151/88 39/152/88 126/153/75 131/154/75
f 47/155/16 41/156/16 40/134/87 44/133/87
f 30/157/96 45/158/97 42/148/94 1/147/93
f 15/146/92 46/145/91 45/158/97 30/157/96
f 43/136/98 42/159/99 45/160/100 44/133/101
f 131/154/102 132/161/102 42/162/99 43/151/98
f 47/24/103 46/163/104 138/164/105 137/21/105
f 44/133/101 45/160/100 46/165/104 47/155/103
f 54/166/106 55/54/107 53/53/108 52/167/46
f 52/167/46 53/53/108 49/60/109 48/168/18
f 48/168/18 49/60/109 57/59/110 56/169/19
f 56/169/19 57/59/110 50/77/57 51/170/38
f 76/56/33 83/57/34 49/60/37 53/53/31
f 54/171/106 52/71/46 16/72/47 58/73/48
f 40/172/111 152/173/112 126/174/113 39/175/114
f 129/176/115 152/173/112 40/172/111 41/177/116
f 119/1/1 122/178/117 89/179/117 75/2/1
f 124/180/118 123/181/119 104/182/120 113/183/121
f 109/184/122 108/185/123 87/186/124 102/187/125
f 107/13/11 108/188/14 88/189/126 71/14/12
f 73/17/15 103/190/15 106/191/15 74/18/15
f 137/21/1 140/192/127 130/193/127 129/22/1
f 115/25/15 114/194/15 103/190/15 73/17/15
f 87/195/124 90/30/1 99/29/1 102/196/125
f 111/31/15 110/197/15 101/198/15 100/32/15
f 62/199/128 78/38/15 80/37/15 60/200/128
f 141/201/129 69/202/130 67/203/131 149/204/132
f 60/200/133 80/37/23 94/44/23 61/205/133
f 64/206/134 79/48/27 84/47/26 68/207/135
f 62/208/136 60/209/136 61/210/137 63/211/138
f 146/212/31 76/56/33 77/55/32 148/213/32
f 83/57/34 142/214/37 150/215/36 81/58/35
f 144/216/139 149/204/132 67/203/131 70/217/140
f 68/207/135 84/47/26 82/64/41 66/218/141
f 66/218/141 82/64/41 85/66/43 92/219/142
f 63/220/138 61/221/137 65/222/143 93/223/144
f 145/224/145 91/225/146 69/202/130 141/201/129
f 151/226/147 93/227/144 65/228/143 91/225/146
f 81/58/35 150/215/36 143/229/49 86/76/49
f 64/230/148 91/225/146 65/228/143 61/231/137
f 69/232/130 91/233/146 64/206/148 68/207/149
f 67/203/131 69/202/130 68/234/149 66/235/150
f 66/235/150 92/236/151 70/217/140 67/203/131
f 61/237/152 94/88/55 79/87/27 64/238/134
f 86/89/56 143/239/153 92/240/151 85/90/56
f 144/241/139 70/242/140 92/240/151 143/239/153
f 117/243/154 124/180/118 113/183/121 98/244/154
f 104/182/155 105/245/156 106/246/157 103/247/158
f 102/196/159 99/29/65 100/101/65 101/248/160
f 113/249/161 104/250/155 103/190/158 114/194/161
f 109/251/162 102/252/159 101/198/160 110/197/163
f 95/106/69 98/253/164 97/254/165 96/107/69
f 104/182/120 123/181/119 88/255/166 105/245/167
f 105/245/156 109/184/162 110/256/163 106/246/157
f 74/18/15 106/191/15 110/197/15 111/31/15
f 90/112/74 87/257/74 108/188/14 107/13/11
f 105/245/167 88/255/166 108/185/123 109/184/122
f 121/114/75 117/258/75 98/253/75 95/106/75
f 98/259/164 113/249/161 114/194/161 97/260/165
f 96/118/15 97/260/15 114/194/15 115/25/15
f 71/14/12 88/189/126 123/261/168 118/119/76
f 125/262/169 122/263/170 123/261/171 124/264/172
f 122/263/170 119/124/82 118/119/82 123/261/171
f 120/125/83 116/265/173 117/266/174 121/126/83
f 116/265/173 125/262/169 124/264/172 117/266/174
f 116/267/175 120/132/75 72/131/75 59/268/175
f 135/269/176 134/270/177 127/271/177 128/272/176
f 125/273/178 116/274/175 59/275/175 112/276/178
f 122/277/117 125/273/178 112/276/178 89/278/117
f 75/143/90 89/279/179 139/280/180 138/144/90
f 59/281/181 72/150/95 132/149/95 133/282/182
f 134/283/177 131/154/75 126/153/75 127/284/177
f 140/285/127 135/269/176 128/272/176 130/286/127
f 112/287/183 59/281/181 133/282/182 136/288/184
f 89/279/179 112/287/183 136/288/184 139/280/180
f 134/270/185 135/269/186 136/289/187 133/290/188
f 131/154/102 134/283/185 133/291/188 132/161/102
f 140/192/189 137/21/105 138/164/105 139/292/190
f 135/269/186 140/285/189 139/293/190 136/289/187
f 147/294/191 145/295/145 146/212/192 148/213/193
f 145/295/145 141/296/129 142/214/194 146/212/192
f 141/296/129 149/297/132 150/215/195 142/214/194
f 149/297/132 144/298/139 143/229/153 150/215/195
f 76/56/33 146/212/31 142/214/37 83/57/34
f 147/299/191 151/226/147 91/225/146 145/224/145
f 128/300/196 127/301/197 126/174/113 152/173/112
f 129/176/115 130/302/198 128/300/196 152/173/112
